<svg xmlns="http://www.w3.org/2000/svg" id="justice-scale" viewBox="0 0 48 48">
  <path fill="#b5633a" d="M41,11.056h-3.106c-2,0-3.975-.321-5.872-.953-1.952-.651-3.973-1.012-6.021-1.113v-2.989c0-1.105-.895-2-2-2s-2,.895-2,2v2.989c-2.048.101-4.07.463-6.021,1.113-1.897.632-3.873.953-5.873.953h-3.106c-1.104,0-2,.896-2,2s.896,2,2,2h3.106c2.43,0,4.832-.39,7.138-1.158,1.542-.514,3.138-.811,4.756-.908v23.011h-3c-1.657,0-3,1.343-3,3v1h-2c-1.657,0-3,1.343-3,3,0,.552.448,1,1,1h24c.552,0,1-.448,1-1,0-1.657-1.343-3-3-3h-2v-1c0-1.657-1.343-3-3-3h-3V12.989c1.617.097,3.213.394,4.756.908,2.306.769,4.707,1.158,7.137,1.158h3.106c1.104,0,2-.896,2-2s-.896-2-2-2Z"></path>
  <path fill="#9a4c29" d="M34,40h-2v-1c0-1.657-1.343-3-3-3h-4c1.657,0,3,1.343,3,3v1h1c1.657,0,3,1.343,3,3,0,.552-.448,1-1,1h5c.552,0,1-.448,1-1,0-1.657-1.343-3-3-3Z"></path>
  <path fill="#ffc343" d="M15,31H5c-1.657,0-3-1.343-3-3v-.5c0-.276.224-.5.5-.5h15c.276,0,.5.224.5.5v.5c0,1.657-1.343,3-3,3Z"></path>
  <path fill="#ffa221" d="M17.5,27h-4c.276,0,.5.224.5.5v.5c0,1.657-1.343,3-3,3h4c1.657,0,3-1.343,3-3v-.5c0-.276-.224-.5-.5-.5Z"></path>
  <path fill="#ffc343" d="M43,31h-10c-1.657,0-3-1.343-3-3v-.5c0-.276.224-.5.5-.5h15c.276,0,.5.224.5.5v.5c0,1.657-1.343,3-3,3Z"></path>
  <path fill="#ffa221" d="M45.5,27h-4c.276,0,.5.224.5.5v.5c0,1.657-1.343,3-3,3h4c1.657,0,3-1.343,3-3v-.5c0-.276-.224-.5-.5-.5Z"></path>
  <circle cx="24" cy="11" r="3" fill="#ffc343"></circle>
  <path fill="#ffa221" d="M24,8c-.188,0-.371.022-.549.055.887.205,1.549.996,1.549,1.945,0,1.105-.895,2-2,2-.949,0-1.74-.663-1.945-1.549-.033.179-.055.361-.055.549,0,1.657,1.343,3,3,3s3-1.343,3-3-1.343-3-3-3Z"></path>
  <path fill="#08105e" d="M45.6,26.01l-5.359-9.95h.759c1.65,0,3-1.35,3-3s-1.35-3-3-3h-3.11c-1.87,0-3.74-.31-5.55-.91-1.713-.574-3.506-.933-5.34-1.101v-2.049c0-1.65-1.35-3-3-3s-3,1.35-3,3v2.049c-1.834.169-3.626.528-5.33,1.101-1.82.6-3.69.91-5.56.91h-3.11c-1.65,0-3,1.35-3,3s1.35,3,3,3h.759l-5.359,9.95c-.78.053-1.4.697-1.4,1.49v.5c0,2.206,1.794,4,4,4h10c2.206,0,4-1.794,4-4v-.5c0-.793-.62-1.437-1.4-1.49l-5.404-10.05c1.825-.162,3.624-.531,5.363-1.111,1.108-.372,2.262-.627,3.44-.771v20.921h-2c-2.21,0-4,1.79-4,4h-1c-2.206,0-4,1.794-4,4,0,1.103.897,2,2,2h24c1.103,0,2-.897,2-2,0-2.206-1.794-4-4-4h-1c0-2.21-1.79-4-4-4h-2V14.079c1.178.144,2.332.399,3.44.771,1.74.58,3.539.948,5.363,1.111l-5.404,10.05c-.78.053-1.4.697-1.4,1.49v.5c0,2.206,1.794,4,4,4h10c2.206,0,4-1.794,4-4v-.5c0-.793-.62-1.437-1.4-1.49ZM43.331,26h-10.662l5.331-9.89,5.331,9.89ZM22,11c0-1.103.897-2,2-2s2,.897,2,2-.897,2-2,2-2-.897-2-2ZM24,5c.55,0,1,.45,1,1v1.145c-.657-.169-1.343-.169-2,0v-1.145c0-.55.45-1,1-1ZM10,16.11l5.331,9.89H4.669l5.331-9.89ZM15,30H5c-1.103,0-2-.897-2-2h14c0,1.103-.897,2-2,2ZM16.92,12.95c-2.19.74-4.49,1.11-6.81,1.11h-3.11c-.55,0-1-.45-1-1s.45-1,1-1h3.11c2.08,0,4.16-.34,6.19-1.01,1.226-.416,2.496-.711,3.798-.893-.143.667-.103,1.357.096,2.012-1.115.169-2.21.426-3.275.781ZM34,41c1.103,0,2,.897,2,2H12c0-1.103.897-2,2-2h20ZM31,39h-14c0-1.1.9-2,2-2h10c1.1,0,2,.9,2,2ZM23,35V14.855c.657.169,1.343.169,2,0v20.145h-2ZM27.805,12.169c.2-.655.239-1.345.096-2.012,1.303.182,2.575.477,3.808.893,2.02.67,4.1,1.01,6.18,1.01h3.11c.55,0,1,.45,1,1s-.45,1-1,1h-3.11c-2.32,0-4.62-.37-6.81-1.11-1.065-.355-2.16-.612-3.275-.781ZM43,30h-10c-1.103,0-2-.897-2-2h14c0,1.103-.897,2-2,2Z"></path>
</svg>
